<svg xmlns="http://www.w3.org/2000/svg" xmlns:xlink="http://www.w3.org/1999/xlink" viewBox="0,0,256,256" width="32px" height="32px" fill-rule="evenodd"><g fill="none" fill-rule="evenodd" stroke="none" stroke-width="1" stroke-linecap="butt" stroke-linejoin="miter" stroke-miterlimit="10" stroke-dasharray="" stroke-dashoffset="0" font-family="none" font-weight="none" font-size="none" text-anchor="none" style="mix-blend-mode: normal"><g transform="scale(8,8)"><path d="M10.003,31.003v-4h-2v-4h-2v-4h-2v-4h2v-2h2v2h2v-12h2v-2h2v2h2v4h2v2h4v2h4v2h2v14h-2v4z" fill="#000000"></path><path d="M12.003,29.003v-2h-2v-4h-2v-4h-2v-4h2v2h2v2h2v-16h2v12h2v-6h2v6h2v-4h2v4h2v-2h2v14h-2v2z" fill="#ffffff"></path></g></g></svg>